<mxfile host="app.diagrams.net" modified="2024-06-21T10:12:29.211Z" agent="Mozilla/5.0 (Windows NT 10.0; Win64; x64) AppleWebKit/537.36 (KHTML, like Gecko) Chrome/125.0.0.0 Safari/537.36 Edg/125.0.0.0" version="24.5.5" etag="SP1R9FSeH4QMpMJMymRt" type="github">
  <diagram name="Page-1" id="Qdnrh6O43rhA-VY0Q7ZE">
    <mxGraphModel>
      <root>
        <mxCell id="0" />
        <mxCell id="1" parent="0" />
      </root>
    </mxGraphModel>
  </diagram>
</mxfile>
